<svg width="1051" height="531" xmlns="http://www.w3.org/2000/svg" xmlns:xlink="http://www.w3.org/1999/xlink" overflow="hidden"><defs><clipPath id="clip0"><rect x="103" y="49" width="1051" height="531"/></clipPath><clipPath id="clip1"><rect x="159" y="135" width="57" height="56"/></clipPath><clipPath id="clip2"><rect x="159" y="135" width="57" height="56"/></clipPath><clipPath id="clip3"><rect x="159" y="135" width="57" height="56"/></clipPath><clipPath id="clip4"><rect x="453" y="135" width="57" height="56"/></clipPath><clipPath id="clip5"><rect x="453" y="135" width="57" height="56"/></clipPath><clipPath id="clip6"><rect x="453" y="135" width="57" height="56"/></clipPath><clipPath id="clip7"><rect x="306" y="135" width="56" height="56"/></clipPath><clipPath id="clip8"><rect x="306" y="135" width="56" height="56"/></clipPath><clipPath id="clip9"><rect x="306" y="135" width="56" height="56"/></clipPath><clipPath id="clip10"><rect x="162" y="411" width="57" height="57"/></clipPath><clipPath id="clip11"><rect x="162" y="411" width="57" height="57"/></clipPath><clipPath id="clip12"><rect x="162" y="411" width="57" height="57"/></clipPath><clipPath id="clip13"><rect x="612" y="135" width="57" height="56"/></clipPath><clipPath id="clip14"><rect x="612" y="135" width="57" height="56"/></clipPath><clipPath id="clip15"><rect x="612" y="135" width="57" height="56"/></clipPath><clipPath id="clip16"><rect x="772" y="135" width="57" height="56"/></clipPath><clipPath id="clip17"><rect x="772" y="135" width="57" height="56"/></clipPath><clipPath id="clip18"><rect x="772" y="135" width="57" height="56"/></clipPath><clipPath id="clip19"><rect x="322" y="411" width="56" height="57"/></clipPath><clipPath id="clip20"><rect x="322" y="411" width="56" height="57"/></clipPath><clipPath id="clip21"><rect x="322" y="411" width="56" height="57"/></clipPath><clipPath id="clip22"><rect x="489" y="408" width="57" height="56"/></clipPath><clipPath id="clip23"><rect x="489" y="408" width="57" height="56"/></clipPath><clipPath id="clip24"><rect x="489" y="408" width="57" height="56"/></clipPath><clipPath id="clip25"><rect x="649" y="408" width="57" height="57"/></clipPath><clipPath id="clip26"><rect x="649" y="408" width="57" height="57"/></clipPath><clipPath id="clip27"><rect x="649" y="408" width="57" height="57"/></clipPath><clipPath id="clip28"><rect x="851" y="408" width="56" height="56"/></clipPath><clipPath id="clip29"><rect x="851" y="408" width="56" height="56"/></clipPath><clipPath id="clip30"><rect x="851" y="408" width="56" height="56"/></clipPath><clipPath id="clip31"><rect x="1030" y="411" width="57" height="56"/></clipPath><clipPath id="clip32"><rect x="1030" y="411" width="57" height="56"/></clipPath><clipPath id="clip33"><rect x="1030" y="411" width="57" height="56"/></clipPath></defs><g clip-path="url(#clip0)" transform="translate(-103 -49)"><rect x="103" y="93" width="773" height="186" fill="#F2F2F2"/><rect x="106" y="367" width="1047" height="208" fill="#F2F2F2"/><g clip-path="url(#clip1)"><g clip-path="url(#clip2)"><g clip-path="url(#clip3)"><path d="M28 0C14.917 0 4.6667 4.613 4.6667 10.5 4.6667 16.387 14.917 21 28 21 41.083 21 51.3333 16.387 51.3333 10.5 51.3333 4.613 41.083 0 28 0ZM28 18.6667C15.624 18.6667 7 14.3617 7 10.5 7 6.6383 15.624 2.3333 28 2.3333 40.376 2.3333 49 6.6383 49 10.5 49 14.3617 40.376 18.6667 28 18.6667Z" transform="matrix(1.01786 0 0 1 159 135)"/><path d="M50.1667 21C49.5227 21 49 21.5227 49 22.1667 49 26.0284 40.376 30.3334 28 30.3334 15.624 30.3334 7 26.0284 7 22.1667 7 21.5227 6.4773 21 5.8333 21 5.1893 21 4.66659 21.5227 4.66659 22.1667 4.66659 28.0537 14.9169 32.6667 27.9999 32.6667 41.0829 32.6667 51.3332 28.0537 51.3332 22.1667 51.3333 21.5227 50.8107 21 50.1667 21Z" transform="matrix(1.01786 0 0 1 159 135)"/><path d="M50.1667 32.6667C49.5227 32.6667 49 33.1894 49 33.8334 49 37.695 40.376 42 28 42 15.624 42 7 37.695 7 33.8333 7 33.1893 6.4773 32.6666 5.8333 32.6666 5.1893 32.6666 4.66659 33.1893 4.66659 33.8333 4.66659 39.7203 14.9169 44.3333 27.9999 44.3333 41.0829 44.3333 51.3332 39.7203 51.3332 33.8333 51.3333 33.1893 50.8107 32.6667 50.1667 32.6667Z" transform="matrix(1.01786 0 0 1 159 135)"/><path d="M50.1667 9.3333C49.5227 9.3333 49 9.856 49 10.5L49 45.5C49 49.3617 40.376 53.6667 28 53.6667 15.624 53.6667 7 49.3617 7 45.5L7 10.5C7 9.856 6.4773 9.3333 5.8333 9.3333 5.1893 9.3333 4.6667 9.856 4.6667 10.5L4.6667 45.5C4.6667 51.387 14.917 56 28 56 41.083 56 51.3333 51.387 51.3333 45.5L51.3333 10.5C51.3333 9.856 50.8107 9.3333 50.1667 9.3333Z" transform="matrix(1.01786 0 0 1 159 135)"/></g></g></g><g clip-path="url(#clip4)"><g clip-path="url(#clip5)"><g clip-path="url(#clip6)"><path d="M11.781 32.2C10.8622 31.7564 9.83675 31.5 8.75 31.5 4.89038 31.5 1.75 34.6404 1.75 38.5 1.75 42.3596 4.89038 45.5 8.75 45.5 11.172 45.5 13.3096 44.2627 14.567 42.3876L21.1794 45.6978C21.0656 46.1974 21 46.7162 21 47.25 21 51.1096 24.1404 54.25 28 54.25 31.8596 54.25 35 51.1096 35 47.25 35 45.7992 34.5564 44.4509 33.7969 43.3317L43.0885 33.6166C44.254 34.4811 45.6908 35 47.25 35 51.1096 35 54.25 31.8596 54.25 28 54.25 24.1404 51.1096 21 47.25 21 45.6348 21 44.1507 21.5548 42.9643 22.477L33.523 13.0357C34.4453 11.8492 35 10.3652 35 8.75 35 4.89038 31.8596 1.75 28 1.75 24.1404 1.75 21 4.89038 21 8.75 21 9.282 21.0647 9.79913 21.1785 10.2979L14.973 12.5589C13.8092 10.3005 11.4599 8.75 8.75 8.75 4.89038 8.75 1.75 11.8904 1.75 15.75 1.75 19.6096 4.89038 22.75 8.75 22.75 9.74575 22.75 10.6916 22.5382 11.55 22.1611L14.7709 27.5817ZM8.75 43.75C5.85462 43.75 3.5 41.3954 3.5 38.5 3.5 35.6046 5.85462 33.25 8.75 33.25 11.6454 33.25 14 35.6046 14 38.5 14 41.3954 11.6454 43.75 8.75 43.75ZM15.3466 40.8196C15.603 40.0925 15.75 39.3138 15.75 38.5 15.75 36.3536 14.777 34.4321 13.2519 33.1476L15.7684 29.2609 23.3555 42.028C22.7167 42.5967 22.1821 43.2775 21.7858 44.0431ZM28 15.75C29.6152 15.75 31.0993 15.1952 32.2857 14.273L41.7279 23.7151C41.1618 24.4431 40.7383 25.284 40.4941 26.1992L34.9974 25.4432C34.9965 25.4205 35 25.3977 35 25.375 35 21.5154 31.8596 18.375 28 18.375 25.578 18.375 23.4395 19.6122 22.183 21.4874L21.1391 20.9659 24.9699 15.05C25.8878 15.4936 26.9132 15.75 28 15.75ZM28.875 40.3104 28.875 32.3138C31.7188 31.9567 34.0322 29.89 34.7568 27.1758L40.2535 27.9318C40.2535 27.9545 40.25 27.9773 40.25 28 40.25 29.6712 40.8397 31.2051 41.8206 32.41L32.6331 42.0166C31.6033 41.104 30.3074 40.4906 28.875 40.3104ZM28 20.125C30.8954 20.125 33.25 22.4796 33.25 25.375 33.25 28.2704 30.8954 30.625 28 30.625 25.1046 30.625 22.75 28.2704 22.75 25.375 22.75 22.4796 25.1046 20.125 28 20.125ZM21.4034 23.0554C21.147 23.7825 21 24.5612 21 25.375 21 28.938 23.6775 31.8815 27.125 32.3146L27.125 40.3112C26.2955 40.4154 25.5124 40.6639 24.7992 41.0322L16.8298 27.6211 20.1819 22.4446ZM28 52.5C25.1046 52.5 22.75 50.1454 22.75 47.25 22.75 44.3546 25.1046 42 28 42 30.8954 42 33.25 44.3546 33.25 47.25 33.25 50.1454 30.8954 52.5 28 52.5ZM47.25 22.75C50.1454 22.75 52.5 25.1046 52.5 28 52.5 30.8954 50.1454 33.25 47.25 33.25 44.3546 33.25 42 30.8954 42 28 42 25.1046 44.3546 22.75 47.25 22.75ZM28 3.5C30.8954 3.5 33.25 5.85462 33.25 8.75 33.25 11.6454 30.8954 14 28 14 25.1046 14 22.75 11.6454 22.75 8.75 22.75 5.85462 25.1046 3.5 28 3.5ZM21.777 11.9411C22.2049 12.7715 22.7902 13.5056 23.4981 14.1024L19.5641 20.1784 15.3466 18.0696C15.603 17.3425 15.75 16.5638 15.75 15.75 15.75 15.218 15.6853 14.7009 15.5715 14.2021ZM3.5 15.75C3.5 12.8546 5.85462 10.5 8.75 10.5 11.6454 10.5 14 12.8546 14 15.75 14 18.6454 11.6454 21 8.75 21 5.85462 21 3.5 18.6454 3.5 15.75ZM13.0506 21.2616C13.6369 20.8031 14.1514 20.2571 14.567 19.6376L18.6069 21.6571 15.8322 25.942Z" transform="matrix(1.01786 0 0 1 453 135)"/></g></g></g><path d="M216.5 163.167 300.181 163.167 300.181 163.833 216.5 163.833ZM298.848 159.5 306.848 163.5 298.848 167.5Z" fill="#414042"/><path d="M363.5 163.167 447.181 163.167 447.181 163.833 363.5 163.833ZM445.848 159.5 453.848 163.5 445.848 167.5Z" fill="#414042"/><text fill="#202021" font-family="Arial,Arial_MSFontService,sans-serif" font-weight="400" font-size="16" transform="translate(153.765 216)">SongsDB<tspan font-size="16" x="-12.4133" y="19">(175k songs)</tspan><tspan font-size="16" x="125.797" y="0">Feature scaling </tspan><tspan font-size="16" x="121.797" y="19">and model fitting</tspan><tspan font-size="16" x="300.224" y="0">Trained </tspan><tspan font-size="16" x="271.09" y="19">K</tspan><tspan font-size="16" x="281.757" y="19">-</tspan><tspan font-size="16" x="287.09" y="19">means model</tspan></text><g clip-path="url(#clip7)"><g clip-path="url(#clip8)"><g clip-path="url(#clip9)"><path d="M355.009 152.621C355.009 153.226 354.518 153.717 353.912 153.717 353.307 153.717 352.816 153.226 352.816 152.621 352.816 152.016 353.307 151.525 353.912 151.525 354.518 151.525 355.009 152.016 355.009 152.621Z"/><path d="M347.874 170.597 340.556 170.597C339.953 170.597 339.463 170.107 339.463 169.503L339.463 168.168C338.524 167.876 337.615 167.498 336.744 167.038L335.806 167.979C335.601 168.185 335.322 168.3 335.032 168.3 334.741 168.3 334.462 168.185 334.257 167.979L329.082 162.786C328.657 162.359 328.657 161.669 329.082 161.242L330.024 160.297C329.564 159.422 329.186 158.508 328.894 157.564L327.569 157.564C326.965 157.564 326.475 157.074 326.475 156.47L326.475 149.127C326.475 148.523 326.965 148.033 327.569 148.033L328.894 148.033C329.186 147.089 329.564 146.175 330.024 145.3L329.082 144.355C328.657 143.928 328.657 143.237 329.082 142.811L334.257 137.618C334.462 137.412 334.741 137.297 335.032 137.297 335.322 137.297 335.601 137.412 335.806 137.618L336.744 138.559C337.615 138.099 338.524 137.72 339.463 137.429L339.463 136.094C339.463 135.49 339.953 135 340.556 135L347.874 135C348.478 135 348.968 135.49 348.968 136.094L348.968 137.429C349.907 137.72 350.816 138.099 351.686 138.559L352.624 137.618C352.83 137.412 353.108 137.296 353.399 137.296 353.69 137.296 353.969 137.412 354.174 137.618L359.348 142.811C359.774 143.237 359.774 143.928 359.348 144.355L358.407 145.3C358.867 146.175 359.245 147.089 359.536 148.033L360.862 148.033C361.466 148.033 361.956 148.523 361.956 149.127L361.956 156.47C361.956 157.074 361.466 157.564 360.862 157.564L359.536 157.564C359.245 158.507 358.867 159.422 358.407 160.297L359.348 161.242C359.774 161.669 359.774 162.359 359.348 162.786L354.174 167.979C353.969 168.185 353.69 168.3 353.399 168.3 353.108 168.3 352.83 168.184 352.624 167.979L351.686 167.038C350.816 167.498 349.907 167.876 348.968 168.168L348.968 169.503C348.968 170.107 348.478 170.597 347.874 170.597ZM341.65 168.409 346.78 168.409 346.78 167.34C346.78 166.839 347.121 166.403 347.606 166.28 348.909 165.951 350.155 165.432 351.311 164.739 351.742 164.48 352.294 164.548 352.649 164.904L353.399 165.657 357.029 162.014 356.274 161.256C355.921 160.902 355.853 160.354 356.109 159.924 356.801 158.763 357.318 157.512 357.646 156.204 357.768 155.718 358.205 155.376 358.706 155.376L359.768 155.376 359.768 150.221 358.706 150.221C358.205 150.221 357.768 149.879 357.646 149.393 357.318 148.085 356.801 146.834 356.109 145.673 355.853 145.243 355.921 144.695 356.274 144.341L357.029 143.583 353.399 139.94 352.649 140.693C352.294 141.049 351.742 141.117 351.311 140.858 350.155 140.165 348.909 139.646 347.606 139.317 347.121 139.194 346.78 138.757 346.78 138.257L346.78 137.188 341.65 137.188 341.65 138.257C341.65 138.757 341.31 139.194 340.824 139.317 339.522 139.646 338.275 140.164 337.119 140.858 336.688 141.117 336.137 141.049 335.782 140.692L335.032 139.94 331.401 143.583 332.157 144.341C332.51 144.695 332.578 145.243 332.322 145.673 331.63 146.833 331.113 148.085 330.785 149.393 330.663 149.879 330.226 150.221 329.724 150.221L328.663 150.221 328.663 155.376 329.724 155.376C330.226 155.376 330.663 155.717 330.785 156.204 331.113 157.512 331.63 158.763 332.322 159.924 332.578 160.353 332.51 160.902 332.157 161.256L331.401 162.014 335.032 165.657 335.782 164.904C336.137 164.548 336.689 164.48 337.119 164.739 338.275 165.432 339.522 165.951 340.824 166.28 341.31 166.403 341.65 166.839 341.65 167.34ZM344.215 163.625C338.264 163.625 333.423 158.768 333.423 152.798 333.423 146.829 338.264 141.972 344.215 141.972 347.985 141.972 351.42 143.895 353.404 147.116 353.72 147.631 353.56 148.304 353.046 148.621 352.531 148.938 351.858 148.778 351.541 148.263 349.959 145.693 347.22 144.159 344.215 144.159 339.47 144.159 335.61 148.035 335.61 152.798 335.61 157.562 339.47 161.437 344.215 161.437 347.296 161.437 350.161 159.767 351.692 157.079L351.727 157.016C352.021 156.488 352.687 156.298 353.215 156.592 353.743 156.885 353.933 157.551 353.639 158.079L353.594 158.16C351.674 161.531 348.081 163.625 344.215 163.625Z"/><path d="M322.911 191 317.227 191C316.623 191 316.133 190.51 316.133 189.906L316.133 189.048C315.507 188.843 314.899 188.59 314.312 188.29L313.71 188.894C313.505 189.1 313.226 189.216 312.935 189.216 312.644 189.216 312.366 189.1 312.16 188.894L308.141 184.861C307.716 184.434 307.716 183.744 308.141 183.317L308.747 182.709C308.447 182.118 308.193 181.506 307.989 180.876L307.138 180.876C306.534 180.876 306.044 180.386 306.044 179.782L306.044 174.078C306.044 173.474 306.534 172.984 307.138 172.984L307.989 172.984C308.193 172.355 308.447 171.742 308.747 171.151L308.141 170.543C307.716 170.117 307.716 169.426 308.141 168.999L312.16 164.966C312.366 164.76 312.644 164.644 312.935 164.644 313.226 164.644 313.505 164.76 313.71 164.966L314.312 165.57C314.899 165.27 315.508 165.017 316.133 164.813L316.133 163.954C316.133 163.35 316.623 162.86 317.227 162.86L322.911 162.86C323.515 162.86 324.005 163.35 324.005 163.954L324.005 164.813C324.63 165.017 325.239 165.27 325.826 165.57L326.428 164.966C326.633 164.76 326.912 164.644 327.203 164.644 327.493 164.644 327.772 164.76 327.977 164.966L331.997 168.999C332.422 169.426 332.422 170.117 331.997 170.543L331.391 171.151C331.691 171.742 331.945 172.355 332.149 172.984L333 172.984C333.604 172.984 334.094 173.474 334.094 174.078L334.094 179.782C334.094 180.386 333.604 180.876 333 180.876L332.149 180.876C331.945 181.506 331.691 182.118 331.391 182.709L331.997 183.317C332.422 183.744 332.422 184.434 331.997 184.861L327.977 188.894C327.772 189.1 327.493 189.216 327.203 189.216 326.912 189.216 326.633 189.1 326.428 188.894L325.826 188.29C325.239 188.59 324.63 188.843 324.005 189.048L324.005 189.906C324.005 190.51 323.515 191 322.911 191ZM318.321 188.812 321.817 188.812 321.817 188.226C321.817 187.725 322.158 187.288 322.643 187.166 323.632 186.916 324.578 186.523 325.455 185.996 325.886 185.737 326.438 185.806 326.793 186.162L327.203 186.573 329.678 184.089 329.263 183.672C328.91 183.318 328.842 182.77 329.098 182.34 329.623 181.459 330.016 180.509 330.265 179.516 330.387 179.03 330.824 178.689 331.326 178.689L331.906 178.689 331.906 175.172 331.326 175.172C330.824 175.172 330.387 174.831 330.265 174.344 330.016 173.352 329.623 172.401 329.098 171.52 328.842 171.091 328.91 170.542 329.263 170.188L329.678 169.772 327.203 167.288 326.793 167.699C326.438 168.055 325.886 168.123 325.455 167.865 324.578 167.338 323.632 166.945 322.643 166.695 322.158 166.572 321.817 166.135 321.817 165.634L321.817 165.048 318.321 165.048 318.321 165.634C318.321 166.135 317.98 166.572 317.495 166.695 316.506 166.945 315.56 167.338 314.683 167.865 314.252 168.123 313.7 168.055 313.345 167.699L312.935 167.288 310.46 169.772 310.875 170.188C311.228 170.542 311.296 171.091 311.04 171.52 310.515 172.401 310.122 173.352 309.873 174.344 309.751 174.831 309.314 175.172 308.812 175.172L308.232 175.172 308.232 178.689 308.812 178.689C309.314 178.689 309.751 179.03 309.873 179.516 310.122 180.509 310.515 181.459 311.04 182.34 311.296 182.77 311.228 183.318 310.875 183.672L310.46 184.089 312.935 186.573 313.345 186.162C313.7 185.806 314.252 185.738 314.683 185.996 315.56 186.523 316.506 186.916 317.495 187.166 317.98 187.288 318.321 187.725 318.321 188.226ZM320.069 184.621C315.841 184.621 312.401 181.171 312.401 176.93 312.401 172.69 315.841 169.239 320.069 169.239 324.297 169.239 327.737 172.69 327.737 176.93 327.737 181.171 324.297 184.621 320.069 184.621ZM320.069 171.427C317.047 171.427 314.589 173.896 314.589 176.93 314.589 179.965 317.047 182.433 320.069 182.433 323.091 182.433 325.549 179.965 325.549 176.93 325.549 173.896 323.091 171.427 320.069 171.427Z"/></g></g></g><g clip-path="url(#clip10)"><g clip-path="url(#clip11)"><g clip-path="url(#clip12)"><path d="M190.5 411C178.46 411 162 420.1 162 439.5 162 458.406 177.832 468 190.5 468 212.234 468 219 448.959 219 439.5 219 425.542 208.318 411 190.5 411ZM183.891 413.682C180.918 416.218 178.449 420.414 176.856 425.62 174.791 424.397 172.895 422.882 171.212 421.121 174.69 417.474 179.089 414.916 183.891 413.682ZM169.989 422.49C171.874 424.453 174.017 426.125 176.351 427.449 175.476 430.849 174.96 434.619 174.892 438.58L163.863 438.58C164.065 432.667 166.219 427.023 169.989 422.49ZM169.989 456.51C166.208 451.977 164.065 446.333 163.863 440.42L174.892 440.42C174.96 444.392 175.476 448.151 176.351 451.551 174.028 452.886 171.885 454.547 169.989 456.51ZM171.212 457.89C172.895 456.129 174.791 454.614 176.856 453.391 178.449 458.586 180.918 462.794 183.891 465.33 179.089 464.084 174.69 461.526 171.212 457.89ZM189.58 466.093C184.8 465.487 180.682 460.146 178.46 452.493 181.894 450.754 185.686 449.778 189.58 449.632L189.58 466.093ZM189.58 447.803C185.518 447.938 181.568 448.936 177.989 450.687 177.237 447.545 176.789 444.078 176.721 440.42L189.58 440.42 189.58 447.803ZM189.58 438.58 176.721 438.58C176.789 434.922 177.237 431.455 177.989 428.313 181.58 430.064 185.529 431.062 189.58 431.197L189.58 438.58ZM189.58 429.368C185.675 429.233 181.894 428.246 178.46 426.507 180.682 418.843 184.8 413.513 189.58 412.907L189.58 429.368ZM211.011 422.49C214.781 427.023 216.935 432.667 217.137 438.58L206.119 438.58C206.052 434.608 205.535 430.849 204.66 427.449 206.983 426.114 209.126 424.453 211.011 422.49ZM209.788 421.11C208.105 422.871 206.209 424.386 204.144 425.609 202.551 420.414 200.082 416.218 197.109 413.67 201.911 414.916 206.31 417.474 209.788 421.11ZM191.42 412.907C196.2 413.513 200.318 418.854 202.54 426.507 199.106 428.246 195.325 429.222 191.42 429.368L191.42 412.907ZM191.42 431.197C195.482 431.062 199.431 430.064 203.011 428.313 203.763 431.455 204.211 434.922 204.279 438.58L191.42 438.58 191.42 431.197ZM191.42 440.42 204.279 440.42C204.211 444.078 203.763 447.545 203.011 450.687 199.431 448.925 195.482 447.927 191.42 447.803L191.42 440.42ZM191.42 466.093 191.42 449.632C195.325 449.767 199.106 450.754 202.54 452.493 200.318 460.157 196.2 465.487 191.42 466.093ZM197.109 465.318C200.082 462.782 202.551 458.586 204.144 453.38 206.209 454.603 208.105 456.118 209.788 457.879 206.31 461.526 201.911 464.084 197.109 465.318ZM211.011 456.51C209.126 454.547 206.983 452.886 204.66 451.551 205.535 448.151 206.052 444.381 206.119 440.42L217.137 440.42C216.935 446.333 214.781 451.977 211.011 456.51Z"/></g></g></g><text fill="#202021" font-family="Arial,Arial_MSFontService,sans-serif" font-weight="400" font-size="24" transform="translate(123.29 356)">Song selection<tspan font-size="16" x="473.387" y="-140">Predict/label</tspan></text><g clip-path="url(#clip13)"><g clip-path="url(#clip14)"><g clip-path="url(#clip15)"><path d="M49.0085 17.621C49.0085 18.2263 48.5178 18.717 47.9125 18.717 47.3072 18.717 46.8164 18.2263 46.8164 17.621 46.8164 17.0156 47.3072 16.5249 47.9125 16.5249 48.5178 16.5249 49.0085 17.0156 49.0085 17.621Z" transform="matrix(1.01786 0 0 1 612 135)"/><path d="M41.8743 35.5969 34.5565 35.5969C33.9525 35.5969 33.4627 35.1072 33.4627 34.5031L33.4627 33.1683C32.5242 32.8765 31.6147 32.4983 30.7443 32.0377L29.8064 32.9787C29.6013 33.1847 29.3225 33.3004 29.0317 33.3004 28.741 33.3004 28.4622 33.1847 28.257 32.9787L23.0825 27.7862C22.657 27.3594 22.657 26.6689 23.0825 26.2421L24.0241 25.2972C23.5638 24.4221 23.1857 23.5075 22.8945 22.5638L21.5688 22.5638C20.9648 22.5638 20.475 22.0742 20.475 21.4701L20.475 14.1268C20.475 13.5227 20.9648 13.033 21.5688 13.033L22.8945 13.033C23.1857 12.0892 23.5636 11.1748 24.024 10.2996L23.0825 9.35473C22.657 8.92795 22.657 8.23747 23.0825 7.81069L28.257 2.61822C28.4622 2.41227 28.741 2.29655 29.0317 2.29655 29.3225 2.29655 29.6013 2.41227 29.8064 2.61822L30.7443 3.55928C31.6146 3.0987 32.5242 2.72038 33.4627 2.42867L33.4627 1.09375C33.4627 0.489672 33.9525 -5.82867e-16 34.5565 -5.82867e-16L41.8743 -5.82867e-16C42.4783 -5.82867e-16 42.9681 0.489672 42.9681 1.09375L42.9681 2.42856C43.9066 2.72027 44.8162 3.09859 45.6865 3.55917L46.6244 2.61811C46.8296 2.41216 47.1084 2.29644 47.3991 2.29644 47.6898 2.29644 47.9686 2.41227 48.1738 2.61811L53.3483 7.81058C53.7738 8.23736 53.7738 8.92784 53.3483 9.35462L52.4068 10.2995C52.8672 11.1747 53.2451 12.0891 53.5363 13.0329L54.8621 13.0329C55.466 13.0329 55.9558 13.5226 55.9558 14.1267L55.9558 21.47C55.9558 22.0741 55.466 22.5637 54.8621 22.5637L53.5363 22.5637C53.2451 23.5074 52.8671 24.422 52.4067 25.2971L53.3483 26.242C53.7738 26.6688 53.7738 27.3593 53.3483 27.7861L48.1738 32.9786C47.9686 33.1846 47.6898 33.3003 47.3991 33.3003 47.1084 33.3003 46.8296 33.1845 46.6244 32.9786L45.6865 32.0376C44.8161 32.4983 43.9067 32.8765 42.9681 33.1682L42.9681 34.503C42.9681 35.1072 42.4783 35.5969 41.8743 35.5969ZM35.6501 33.4094 40.7805 33.4094 40.7805 32.3403C40.7805 31.8394 41.1207 31.4025 41.6064 31.2799 42.9088 30.9509 44.1553 30.4324 45.3111 29.7386 45.7421 29.4801 46.2938 29.5482 46.6487 29.9044L47.3989 30.6573 51.0292 27.0142 50.2737 26.256C49.9207 25.9019 49.8528 25.3536 50.1088 24.924 50.8005 23.7634 51.3175 22.5119 51.6456 21.2041 51.7675 20.7176 52.2048 20.3765 52.7064 20.3765L53.768 20.3765 53.768 15.2206 52.7064 15.2206C52.2048 15.2206 51.7675 14.8794 51.6456 14.3929 51.3175 13.0852 50.8005 11.8336 50.1088 10.6729 49.8528 10.2434 49.9207 9.69511 50.2737 9.34095L51.0291 8.58277 47.3989 4.9397 46.6487 5.69253C46.2938 6.04877 45.7421 6.11702 45.3111 5.85834 44.1553 5.16458 42.9088 4.64603 41.6064 4.31703 41.1208 4.19431 40.7805 3.75747 40.7805 3.25664L40.7805 2.1875 35.6501 2.1875 35.6501 3.25653C35.6501 3.75747 35.3099 4.19431 34.8242 4.31692 33.5218 4.64592 32.2753 5.16447 31.1195 5.85823 30.6884 6.11691 30.1366 6.04855 29.7818 5.69242L29.0316 4.93959 25.4014 8.58266 26.1568 9.34084C26.5098 9.695 26.5777 10.2434 26.3216 10.6728 25.63 11.8335 25.1129 13.0851 24.7849 14.3928 24.663 14.8793 24.2257 15.2205 23.7241 15.2205L22.6625 15.2205 22.6625 20.3763 23.7241 20.3763C24.2257 20.3763 24.663 20.7175 24.7849 21.204 25.1129 22.5118 25.63 23.7633 26.3216 24.9239 26.5777 25.3535 26.5098 25.9017 26.1568 26.2559L25.4013 27.0141 29.0316 30.6572 29.7818 29.9043C30.1366 29.5483 30.6887 29.4801 31.1195 29.7385 32.2753 30.4323 33.5218 30.9508 34.8242 31.2798 35.3097 31.4025 35.6501 31.8394 35.6501 32.3402ZM38.2153 28.6249C32.2643 28.6249 27.4227 23.7682 27.4227 17.7984 27.4227 11.8286 32.2643 6.97189 38.2153 6.97189 41.9853 6.97189 45.4202 8.89503 47.4037 12.1162 47.7204 12.6306 47.5602 13.3044 47.0458 13.621 46.5313 13.9378 45.8578 13.7775 45.5409 13.2631 43.9587 10.6935 41.2202 9.15939 38.2153 9.15939 33.4704 9.15939 29.6102 13.0349 29.6102 17.7984 29.6102 22.5619 33.4704 26.4374 38.2153 26.4374 41.2962 26.4374 44.161 24.7672 45.6918 22.0785L45.7273 22.0157C46.0211 21.4877 46.687 21.2979 47.2149 21.5916 47.7427 21.8853 47.9327 22.5513 47.639 23.0791L47.5935 23.1597C45.6739 26.5312 42.0806 28.6249 38.2153 28.6249Z" transform="matrix(1.01786 0 0 1 612 135)"/><path d="M16.9111 56 11.2268 56C10.6228 56 10.133 55.5103 10.133 54.9062L10.133 54.0478C9.50742 53.8435 8.89886 53.5902 8.31195 53.2903L7.70984 53.8944C7.50466 54.1004 7.22586 54.2161 6.93514 54.2161 6.64442 54.2161 6.36562 54.1003 6.16044 53.8944L2.14102 49.8609C1.71555 49.4341 1.71555 48.7436 2.14102 48.3168L2.74662 47.709C2.4465 47.1183 2.1933 46.5058 1.98909 45.876L1.13805 45.876C0.533969 45.876 0.0442969 45.3864 0.0442969 44.7823L0.0442969 39.078C0.0442969 38.474 0.533969 37.9843 1.13805 37.9843L1.98909 37.9843C2.19319 37.3546 2.4465 36.742 2.74662 36.1513L2.14102 35.5435C1.71555 35.1167 1.71555 34.4262 2.14102 33.9994L6.16044 29.9659C6.36562 29.76 6.64442 29.6442 6.93514 29.6442 7.22586 29.6442 7.50466 29.76 7.70984 29.9659L8.31195 30.57C8.89886 30.2701 9.50753 30.0169 10.133 29.8126L10.133 28.9541C10.133 28.35 10.6228 27.8603 11.2268 27.8603L16.9111 27.8603C17.5152 27.8603 18.0049 28.35 18.0049 28.9541L18.0049 29.8126C18.6305 30.0169 19.2391 30.2701 19.826 30.57L20.4281 29.9659C20.6333 29.76 20.9121 29.6442 21.2028 29.6442 21.4935 29.6442 21.7723 29.7601 21.9775 29.9659L25.9969 33.9994C26.4224 34.4262 26.4224 35.1167 25.9969 35.5435L25.3913 36.1513C25.6914 36.742 25.9447 37.3546 26.1488 37.9843L26.9999 37.9843C27.604 37.9843 28.0936 38.474 28.0936 39.078L28.0936 44.7823C28.0936 45.3864 27.6038 45.876 26.9999 45.876L26.1488 45.876C25.9446 46.5057 25.6914 47.1182 25.3913 47.709L25.9969 48.3168C26.4224 48.7436 26.4224 49.4341 25.9969 49.8609L21.9775 53.8944C21.7723 54.1004 21.4935 54.2161 21.2028 54.2161 20.9121 54.2161 20.6333 54.1004 20.4281 53.8944L19.826 53.2903C19.2391 53.5902 18.6304 53.8435 18.0049 54.0478L18.0049 54.9062C18.0049 55.5103 17.5152 56 16.9111 56ZM12.3207 53.8125 15.8175 53.8125 15.8175 53.2262C15.8175 52.7254 16.1577 52.2885 16.6434 52.1659 17.6321 51.9162 18.5781 51.5225 19.4554 50.996 19.8861 50.7374 20.4381 50.8056 20.793 51.1617L21.2029 51.573 23.6783 49.089 23.2631 48.6724C22.9101 48.3183 22.8422 47.77 23.0983 47.3405 23.6234 46.4593 24.0159 45.5092 24.2647 44.5165 24.3868 44.03 24.8241 43.6888 25.3257 43.6888L25.9062 43.6888 25.9062 40.172 25.3257 40.172C24.8241 40.172 24.3868 39.8308 24.2647 39.3443 24.0159 38.3516 23.6234 37.4014 23.0983 36.5203 22.8422 36.0909 22.91 35.5425 23.2631 35.1883L23.6783 34.7716 21.2029 32.2876 20.793 32.699C20.4381 33.0551 19.8863 33.1232 19.4554 32.8647 18.5781 32.3381 17.6319 31.9445 16.6434 31.6948 16.1577 31.5722 15.8175 31.1352 15.8175 30.6344L15.8175 30.0482 12.3207 30.0482 12.3207 30.6344C12.3207 31.1353 11.9804 31.5722 11.4948 31.6948 10.5062 31.9445 9.56014 32.3381 8.68273 32.8647 8.25158 33.1233 7.69989 33.055 7.34508 32.699L6.93514 32.2876 4.45977 34.7716 4.87495 35.1883C5.22802 35.5425 5.29583 36.0909 5.03978 36.5203 4.51467 37.4014 4.12213 38.3516 3.8733 39.3443 3.75123 39.8308 3.31395 40.172 2.81236 40.172L2.2318 40.172 2.2318 43.6888 2.81236 43.6888C3.31395 43.6888 3.75123 44.03 3.8733 44.5165 4.12213 45.5092 4.51467 46.4593 5.03978 47.3405 5.29583 47.77 5.22791 48.3183 4.87495 48.6724L4.45977 49.089 6.93514 51.573 7.34508 51.1617C7.7 50.8056 8.25191 50.7375 8.68273 50.996 9.55992 51.5226 10.506 51.9162 11.4948 52.1659 11.9803 52.2885 12.3207 52.7254 12.3207 53.2262ZM14.069 49.621C9.84091 49.621 6.40106 46.171 6.40106 41.9302 6.40106 37.6895 9.8408 34.2394 14.069 34.2394 18.2971 34.2394 21.7369 37.6895 21.7369 41.9302 21.7369 46.1709 18.2971 49.621 14.069 49.621ZM14.069 36.4268C11.0471 36.4268 8.58856 38.8956 8.58856 41.9301 8.58856 44.9646 11.0471 47.4334 14.069 47.4334 17.0909 47.4334 19.5494 44.9646 19.5494 41.9301 19.5494 38.8956 17.0909 36.4268 14.069 36.4268Z" transform="matrix(1.01786 0 0 1 612 135)"/></g></g></g><path d="M521.5 163.167 605.181 163.167 605.181 163.833 521.5 163.833ZM603.848 159.5 611.848 163.5 603.848 167.5Z" fill="#414042"/><g clip-path="url(#clip16)"><g clip-path="url(#clip17)"><g clip-path="url(#clip18)"><path d="M28 0C14.917 0 4.6667 4.613 4.6667 10.5 4.6667 16.387 14.917 21 28 21 41.083 21 51.3333 16.387 51.3333 10.5 51.3333 4.613 41.083 0 28 0ZM28 18.6667C15.624 18.6667 7 14.3617 7 10.5 7 6.6383 15.624 2.3333 28 2.3333 40.376 2.3333 49 6.6383 49 10.5 49 14.3617 40.376 18.6667 28 18.6667Z" transform="matrix(1.01786 0 0 1 772 135)"/><path d="M50.1667 21C49.5227 21 49 21.5227 49 22.1667 49 26.0284 40.376 30.3334 28 30.3334 15.624 30.3334 7 26.0284 7 22.1667 7 21.5227 6.4773 21 5.8333 21 5.1893 21 4.66659 21.5227 4.66659 22.1667 4.66659 28.0537 14.9169 32.6667 27.9999 32.6667 41.0829 32.6667 51.3332 28.0537 51.3332 22.1667 51.3333 21.5227 50.8107 21 50.1667 21Z" transform="matrix(1.01786 0 0 1 772 135)"/><path d="M50.1667 32.6667C49.5227 32.6667 49 33.1894 49 33.8334 49 37.695 40.376 42 28 42 15.624 42 7 37.695 7 33.8333 7 33.1893 6.4773 32.6666 5.8333 32.6666 5.1893 32.6666 4.66659 33.1893 4.66659 33.8333 4.66659 39.7203 14.9169 44.3333 27.9999 44.3333 41.0829 44.3333 51.3332 39.7203 51.3332 33.8333 51.3333 33.1893 50.8107 32.6667 50.1667 32.6667Z" transform="matrix(1.01786 0 0 1 772 135)"/><path d="M50.1667 9.3333C49.5227 9.3333 49 9.856 49 10.5L49 45.5C49 49.3617 40.376 53.6667 28 53.6667 15.624 53.6667 7 49.3617 7 45.5L7 10.5C7 9.856 6.4773 9.3333 5.8333 9.3333 5.1893 9.3333 4.6667 9.856 4.6667 10.5L4.6667 45.5C4.6667 51.387 14.917 56 28 56 41.083 56 51.3333 51.387 51.3333 45.5L51.3333 10.5C51.3333 9.856 50.8107 9.3333 50.1667 9.3333Z" transform="matrix(1.01786 0 0 1 772 135)"/></g></g></g><text fill="#202021" font-family="Arial,Arial_MSFontService,sans-serif" font-weight="400" font-size="16" transform="translate(770.179 216)">Labelled <tspan font-size="16" x="-3.66669" y="19">SongsDB</tspan></text><path d="M681.5 164.167 765.181 164.167 765.181 164.833 681.5 164.833ZM763.848 160.5 771.848 164.5 763.848 168.5Z" fill="#414042"/><text fill="#202021" font-family="Arial,Arial_MSFontService,sans-serif" font-weight="400" font-size="16" transform="translate(154.188 490)">Spotify API<tspan font-size="16" x="-27.1067" y="19">“/v1/me/top/tracks”</tspan></text><path d="M232.5 440.167 316.181 440.167 316.181 440.833 232.5 440.833ZM314.848 436.5 322.848 440.5 314.848 444.5Z" fill="#414042"/><text fill="#202021" font-family="Arial,Arial_MSFontService,sans-serif" font-weight="400" font-size="16" transform="translate(295.409 492)">Feature scaling <tspan font-size="16" x="9.91998" y="19">and labelling</tspan></text><g clip-path="url(#clip19)"><g clip-path="url(#clip20)"><g clip-path="url(#clip21)"><path d="M49.0085 17.621C49.0085 18.2263 48.5178 18.717 47.9125 18.717 47.3072 18.717 46.8164 18.2263 46.8164 17.621 46.8164 17.0156 47.3072 16.5249 47.9125 16.5249 48.5178 16.5249 49.0085 17.0156 49.0085 17.621Z" transform="matrix(1 0 0 1.01786 322 411)"/><path d="M41.8743 35.5969 34.5565 35.5969C33.9525 35.5969 33.4627 35.1072 33.4627 34.5031L33.4627 33.1683C32.5242 32.8765 31.6147 32.4983 30.7443 32.0377L29.8064 32.9787C29.6013 33.1847 29.3225 33.3004 29.0317 33.3004 28.741 33.3004 28.4622 33.1847 28.257 32.9787L23.0825 27.7862C22.657 27.3594 22.657 26.6689 23.0825 26.2421L24.0241 25.2972C23.5638 24.4221 23.1857 23.5075 22.8945 22.5638L21.5688 22.5638C20.9648 22.5638 20.475 22.0742 20.475 21.4701L20.475 14.1268C20.475 13.5227 20.9648 13.033 21.5688 13.033L22.8945 13.033C23.1857 12.0892 23.5636 11.1748 24.024 10.2996L23.0825 9.35473C22.657 8.92795 22.657 8.23747 23.0825 7.81069L28.257 2.61822C28.4622 2.41227 28.741 2.29655 29.0317 2.29655 29.3225 2.29655 29.6013 2.41227 29.8064 2.61822L30.7443 3.55928C31.6146 3.0987 32.5242 2.72038 33.4627 2.42867L33.4627 1.09375C33.4627 0.489672 33.9525 -5.82867e-16 34.5565 -5.82867e-16L41.8743 -5.82867e-16C42.4783 -5.82867e-16 42.9681 0.489672 42.9681 1.09375L42.9681 2.42856C43.9066 2.72027 44.8162 3.09859 45.6865 3.55917L46.6244 2.61811C46.8296 2.41216 47.1084 2.29644 47.3991 2.29644 47.6898 2.29644 47.9686 2.41227 48.1738 2.61811L53.3483 7.81058C53.7738 8.23736 53.7738 8.92784 53.3483 9.35462L52.4068 10.2995C52.8672 11.1747 53.2451 12.0891 53.5363 13.0329L54.8621 13.0329C55.466 13.0329 55.9558 13.5226 55.9558 14.1267L55.9558 21.47C55.9558 22.0741 55.466 22.5637 54.8621 22.5637L53.5363 22.5637C53.2451 23.5074 52.8671 24.422 52.4067 25.2971L53.3483 26.242C53.7738 26.6688 53.7738 27.3593 53.3483 27.7861L48.1738 32.9786C47.9686 33.1846 47.6898 33.3003 47.3991 33.3003 47.1084 33.3003 46.8296 33.1845 46.6244 32.9786L45.6865 32.0376C44.8161 32.4983 43.9067 32.8765 42.9681 33.1682L42.9681 34.503C42.9681 35.1072 42.4783 35.5969 41.8743 35.5969ZM35.6501 33.4094 40.7805 33.4094 40.7805 32.3403C40.7805 31.8394 41.1207 31.4025 41.6064 31.2799 42.9088 30.9509 44.1553 30.4324 45.3111 29.7386 45.7421 29.4801 46.2938 29.5482 46.6487 29.9044L47.3989 30.6573 51.0292 27.0142 50.2737 26.256C49.9207 25.9019 49.8528 25.3536 50.1088 24.924 50.8005 23.7634 51.3175 22.5119 51.6456 21.2041 51.7675 20.7176 52.2048 20.3765 52.7064 20.3765L53.768 20.3765 53.768 15.2206 52.7064 15.2206C52.2048 15.2206 51.7675 14.8794 51.6456 14.3929 51.3175 13.0852 50.8005 11.8336 50.1088 10.6729 49.8528 10.2434 49.9207 9.69511 50.2737 9.34095L51.0291 8.58277 47.3989 4.9397 46.6487 5.69253C46.2938 6.04877 45.7421 6.11702 45.3111 5.85834 44.1553 5.16458 42.9088 4.64603 41.6064 4.31703 41.1208 4.19431 40.7805 3.75747 40.7805 3.25664L40.7805 2.1875 35.6501 2.1875 35.6501 3.25653C35.6501 3.75747 35.3099 4.19431 34.8242 4.31692 33.5218 4.64592 32.2753 5.16447 31.1195 5.85823 30.6884 6.11691 30.1366 6.04855 29.7818 5.69242L29.0316 4.93959 25.4014 8.58266 26.1568 9.34084C26.5098 9.695 26.5777 10.2434 26.3216 10.6728 25.63 11.8335 25.1129 13.0851 24.7849 14.3928 24.663 14.8793 24.2257 15.2205 23.7241 15.2205L22.6625 15.2205 22.6625 20.3763 23.7241 20.3763C24.2257 20.3763 24.663 20.7175 24.7849 21.204 25.1129 22.5118 25.63 23.7633 26.3216 24.9239 26.5777 25.3535 26.5098 25.9017 26.1568 26.2559L25.4013 27.0141 29.0316 30.6572 29.7818 29.9043C30.1366 29.5483 30.6887 29.4801 31.1195 29.7385 32.2753 30.4323 33.5218 30.9508 34.8242 31.2798 35.3097 31.4025 35.6501 31.8394 35.6501 32.3402ZM38.2153 28.6249C32.2643 28.6249 27.4227 23.7682 27.4227 17.7984 27.4227 11.8286 32.2643 6.97189 38.2153 6.97189 41.9853 6.97189 45.4202 8.89503 47.4037 12.1162 47.7204 12.6306 47.5602 13.3044 47.0458 13.621 46.5313 13.9378 45.8578 13.7775 45.5409 13.2631 43.9587 10.6935 41.2202 9.15939 38.2153 9.15939 33.4704 9.15939 29.6102 13.0349 29.6102 17.7984 29.6102 22.5619 33.4704 26.4374 38.2153 26.4374 41.2962 26.4374 44.161 24.7672 45.6918 22.0785L45.7273 22.0157C46.0211 21.4877 46.687 21.2979 47.2149 21.5916 47.7427 21.8853 47.9327 22.5513 47.639 23.0791L47.5935 23.1597C45.6739 26.5312 42.0806 28.6249 38.2153 28.6249Z" transform="matrix(1 0 0 1.01786 322 411)"/><path d="M16.9111 56 11.2268 56C10.6228 56 10.133 55.5103 10.133 54.9062L10.133 54.0478C9.50742 53.8435 8.89886 53.5902 8.31195 53.2903L7.70984 53.8944C7.50466 54.1004 7.22586 54.2161 6.93514 54.2161 6.64442 54.2161 6.36562 54.1003 6.16044 53.8944L2.14102 49.8609C1.71555 49.4341 1.71555 48.7436 2.14102 48.3168L2.74662 47.709C2.4465 47.1183 2.1933 46.5058 1.98909 45.876L1.13805 45.876C0.533969 45.876 0.0442969 45.3864 0.0442969 44.7823L0.0442969 39.078C0.0442969 38.474 0.533969 37.9843 1.13805 37.9843L1.98909 37.9843C2.19319 37.3546 2.4465 36.742 2.74662 36.1513L2.14102 35.5435C1.71555 35.1167 1.71555 34.4262 2.14102 33.9994L6.16044 29.9659C6.36562 29.76 6.64442 29.6442 6.93514 29.6442 7.22586 29.6442 7.50466 29.76 7.70984 29.9659L8.31195 30.57C8.89886 30.2701 9.50753 30.0169 10.133 29.8126L10.133 28.9541C10.133 28.35 10.6228 27.8603 11.2268 27.8603L16.9111 27.8603C17.5152 27.8603 18.0049 28.35 18.0049 28.9541L18.0049 29.8126C18.6305 30.0169 19.2391 30.2701 19.826 30.57L20.4281 29.9659C20.6333 29.76 20.9121 29.6442 21.2028 29.6442 21.4935 29.6442 21.7723 29.7601 21.9775 29.9659L25.9969 33.9994C26.4224 34.4262 26.4224 35.1167 25.9969 35.5435L25.3913 36.1513C25.6914 36.742 25.9447 37.3546 26.1488 37.9843L26.9999 37.9843C27.604 37.9843 28.0936 38.474 28.0936 39.078L28.0936 44.7823C28.0936 45.3864 27.6038 45.876 26.9999 45.876L26.1488 45.876C25.9446 46.5057 25.6914 47.1182 25.3913 47.709L25.9969 48.3168C26.4224 48.7436 26.4224 49.4341 25.9969 49.8609L21.9775 53.8944C21.7723 54.1004 21.4935 54.2161 21.2028 54.2161 20.9121 54.2161 20.6333 54.1004 20.4281 53.8944L19.826 53.2903C19.2391 53.5902 18.6304 53.8435 18.0049 54.0478L18.0049 54.9062C18.0049 55.5103 17.5152 56 16.9111 56ZM12.3207 53.8125 15.8175 53.8125 15.8175 53.2262C15.8175 52.7254 16.1577 52.2885 16.6434 52.1659 17.6321 51.9162 18.5781 51.5225 19.4554 50.996 19.8861 50.7374 20.4381 50.8056 20.793 51.1617L21.2029 51.573 23.6783 49.089 23.2631 48.6724C22.9101 48.3183 22.8422 47.77 23.0983 47.3405 23.6234 46.4593 24.0159 45.5092 24.2647 44.5165 24.3868 44.03 24.8241 43.6888 25.3257 43.6888L25.9062 43.6888 25.9062 40.172 25.3257 40.172C24.8241 40.172 24.3868 39.8308 24.2647 39.3443 24.0159 38.3516 23.6234 37.4014 23.0983 36.5203 22.8422 36.0909 22.91 35.5425 23.2631 35.1883L23.6783 34.7716 21.2029 32.2876 20.793 32.699C20.4381 33.0551 19.8863 33.1232 19.4554 32.8647 18.5781 32.3381 17.6319 31.9445 16.6434 31.6948 16.1577 31.5722 15.8175 31.1352 15.8175 30.6344L15.8175 30.0482 12.3207 30.0482 12.3207 30.6344C12.3207 31.1353 11.9804 31.5722 11.4948 31.6948 10.5062 31.9445 9.56014 32.3381 8.68273 32.8647 8.25158 33.1233 7.69989 33.055 7.34508 32.699L6.93514 32.2876 4.45977 34.7716 4.87495 35.1883C5.22802 35.5425 5.29583 36.0909 5.03978 36.5203 4.51467 37.4014 4.12213 38.3516 3.8733 39.3443 3.75123 39.8308 3.31395 40.172 2.81236 40.172L2.2318 40.172 2.2318 43.6888 2.81236 43.6888C3.31395 43.6888 3.75123 44.03 3.8733 44.5165 4.12213 45.5092 4.51467 46.4593 5.03978 47.3405 5.29583 47.77 5.22791 48.3183 4.87495 48.6724L4.45977 49.089 6.93514 51.573 7.34508 51.1617C7.7 50.8056 8.25191 50.7375 8.68273 50.996 9.55992 51.5226 10.506 51.9162 11.4948 52.1659 11.9803 52.2885 12.3207 52.7254 12.3207 53.2262ZM14.069 49.621C9.84091 49.621 6.40106 46.171 6.40106 41.9302 6.40106 37.6895 9.8408 34.2394 14.069 34.2394 18.2971 34.2394 21.7369 37.6895 21.7369 41.9302 21.7369 46.1709 18.2971 49.621 14.069 49.621ZM14.069 36.4268C11.0471 36.4268 8.58856 38.8956 8.58856 41.9301 8.58856 44.9646 11.0471 47.4334 14.069 47.4334 17.0909 47.4334 19.5494 44.9646 19.5494 41.9301 19.5494 38.8956 17.0909 36.4268 14.069 36.4268Z" transform="matrix(1 0 0 1.01786 322 411)"/></g></g></g><path d="M395.5 440.167 479.181 440.167 479.181 440.833 395.5 440.833ZM477.848 436.5 485.848 440.5 477.848 444.5Z" fill="#414042"/><text fill="#202021" font-family="Arial,Arial_MSFontService,sans-serif" font-weight="400" font-size="16" transform="translate(463.247 489)">LabelKeyCount</text><g clip-path="url(#clip22)"><g clip-path="url(#clip23)"><g clip-path="url(#clip24)"><path d="M49.0085 17.621C49.0085 18.2263 48.5178 18.717 47.9125 18.717 47.3072 18.717 46.8164 18.2263 46.8164 17.621 46.8164 17.0156 47.3072 16.5249 47.9125 16.5249 48.5178 16.5249 49.0085 17.0156 49.0085 17.621Z" transform="matrix(1.01786 0 0 1 489 408)"/><path d="M41.8743 35.5969 34.5565 35.5969C33.9525 35.5969 33.4627 35.1072 33.4627 34.5031L33.4627 33.1683C32.5242 32.8765 31.6147 32.4983 30.7443 32.0377L29.8064 32.9787C29.6013 33.1847 29.3225 33.3004 29.0317 33.3004 28.741 33.3004 28.4622 33.1847 28.257 32.9787L23.0825 27.7862C22.657 27.3594 22.657 26.6689 23.0825 26.2421L24.0241 25.2972C23.5638 24.4221 23.1857 23.5075 22.8945 22.5638L21.5688 22.5638C20.9648 22.5638 20.475 22.0742 20.475 21.4701L20.475 14.1268C20.475 13.5227 20.9648 13.033 21.5688 13.033L22.8945 13.033C23.1857 12.0892 23.5636 11.1748 24.024 10.2996L23.0825 9.35473C22.657 8.92795 22.657 8.23747 23.0825 7.81069L28.257 2.61822C28.4622 2.41227 28.741 2.29655 29.0317 2.29655 29.3225 2.29655 29.6013 2.41227 29.8064 2.61822L30.7443 3.55928C31.6146 3.0987 32.5242 2.72038 33.4627 2.42867L33.4627 1.09375C33.4627 0.489672 33.9525 -5.82867e-16 34.5565 -5.82867e-16L41.8743 -5.82867e-16C42.4783 -5.82867e-16 42.9681 0.489672 42.9681 1.09375L42.9681 2.42856C43.9066 2.72027 44.8162 3.09859 45.6865 3.55917L46.6244 2.61811C46.8296 2.41216 47.1084 2.29644 47.3991 2.29644 47.6898 2.29644 47.9686 2.41227 48.1738 2.61811L53.3483 7.81058C53.7738 8.23736 53.7738 8.92784 53.3483 9.35462L52.4068 10.2995C52.8672 11.1747 53.2451 12.0891 53.5363 13.0329L54.8621 13.0329C55.466 13.0329 55.9558 13.5226 55.9558 14.1267L55.9558 21.47C55.9558 22.0741 55.466 22.5637 54.8621 22.5637L53.5363 22.5637C53.2451 23.5074 52.8671 24.422 52.4067 25.2971L53.3483 26.242C53.7738 26.6688 53.7738 27.3593 53.3483 27.7861L48.1738 32.9786C47.9686 33.1846 47.6898 33.3003 47.3991 33.3003 47.1084 33.3003 46.8296 33.1845 46.6244 32.9786L45.6865 32.0376C44.8161 32.4983 43.9067 32.8765 42.9681 33.1682L42.9681 34.503C42.9681 35.1072 42.4783 35.5969 41.8743 35.5969ZM35.6501 33.4094 40.7805 33.4094 40.7805 32.3403C40.7805 31.8394 41.1207 31.4025 41.6064 31.2799 42.9088 30.9509 44.1553 30.4324 45.3111 29.7386 45.7421 29.4801 46.2938 29.5482 46.6487 29.9044L47.3989 30.6573 51.0292 27.0142 50.2737 26.256C49.9207 25.9019 49.8528 25.3536 50.1088 24.924 50.8005 23.7634 51.3175 22.5119 51.6456 21.2041 51.7675 20.7176 52.2048 20.3765 52.7064 20.3765L53.768 20.3765 53.768 15.2206 52.7064 15.2206C52.2048 15.2206 51.7675 14.8794 51.6456 14.3929 51.3175 13.0852 50.8005 11.8336 50.1088 10.6729 49.8528 10.2434 49.9207 9.69511 50.2737 9.34095L51.0291 8.58277 47.3989 4.9397 46.6487 5.69253C46.2938 6.04877 45.7421 6.11702 45.3111 5.85834 44.1553 5.16458 42.9088 4.64603 41.6064 4.31703 41.1208 4.19431 40.7805 3.75747 40.7805 3.25664L40.7805 2.1875 35.6501 2.1875 35.6501 3.25653C35.6501 3.75747 35.3099 4.19431 34.8242 4.31692 33.5218 4.64592 32.2753 5.16447 31.1195 5.85823 30.6884 6.11691 30.1366 6.04855 29.7818 5.69242L29.0316 4.93959 25.4014 8.58266 26.1568 9.34084C26.5098 9.695 26.5777 10.2434 26.3216 10.6728 25.63 11.8335 25.1129 13.0851 24.7849 14.3928 24.663 14.8793 24.2257 15.2205 23.7241 15.2205L22.6625 15.2205 22.6625 20.3763 23.7241 20.3763C24.2257 20.3763 24.663 20.7175 24.7849 21.204 25.1129 22.5118 25.63 23.7633 26.3216 24.9239 26.5777 25.3535 26.5098 25.9017 26.1568 26.2559L25.4013 27.0141 29.0316 30.6572 29.7818 29.9043C30.1366 29.5483 30.6887 29.4801 31.1195 29.7385 32.2753 30.4323 33.5218 30.9508 34.8242 31.2798 35.3097 31.4025 35.6501 31.8394 35.6501 32.3402ZM38.2153 28.6249C32.2643 28.6249 27.4227 23.7682 27.4227 17.7984 27.4227 11.8286 32.2643 6.97189 38.2153 6.97189 41.9853 6.97189 45.4202 8.89503 47.4037 12.1162 47.7204 12.6306 47.5602 13.3044 47.0458 13.621 46.5313 13.9378 45.8578 13.7775 45.5409 13.2631 43.9587 10.6935 41.2202 9.15939 38.2153 9.15939 33.4704 9.15939 29.6102 13.0349 29.6102 17.7984 29.6102 22.5619 33.4704 26.4374 38.2153 26.4374 41.2962 26.4374 44.161 24.7672 45.6918 22.0785L45.7273 22.0157C46.0211 21.4877 46.687 21.2979 47.2149 21.5916 47.7427 21.8853 47.9327 22.5513 47.639 23.0791L47.5935 23.1597C45.6739 26.5312 42.0806 28.6249 38.2153 28.6249Z" transform="matrix(1.01786 0 0 1 489 408)"/><path d="M16.9111 56 11.2268 56C10.6228 56 10.133 55.5103 10.133 54.9062L10.133 54.0478C9.50742 53.8435 8.89886 53.5902 8.31195 53.2903L7.70984 53.8944C7.50466 54.1004 7.22586 54.2161 6.93514 54.2161 6.64442 54.2161 6.36562 54.1003 6.16044 53.8944L2.14102 49.8609C1.71555 49.4341 1.71555 48.7436 2.14102 48.3168L2.74662 47.709C2.4465 47.1183 2.1933 46.5058 1.98909 45.876L1.13805 45.876C0.533969 45.876 0.0442969 45.3864 0.0442969 44.7823L0.0442969 39.078C0.0442969 38.474 0.533969 37.9843 1.13805 37.9843L1.98909 37.9843C2.19319 37.3546 2.4465 36.742 2.74662 36.1513L2.14102 35.5435C1.71555 35.1167 1.71555 34.4262 2.14102 33.9994L6.16044 29.9659C6.36562 29.76 6.64442 29.6442 6.93514 29.6442 7.22586 29.6442 7.50466 29.76 7.70984 29.9659L8.31195 30.57C8.89886 30.2701 9.50753 30.0169 10.133 29.8126L10.133 28.9541C10.133 28.35 10.6228 27.8603 11.2268 27.8603L16.9111 27.8603C17.5152 27.8603 18.0049 28.35 18.0049 28.9541L18.0049 29.8126C18.6305 30.0169 19.2391 30.2701 19.826 30.57L20.4281 29.9659C20.6333 29.76 20.9121 29.6442 21.2028 29.6442 21.4935 29.6442 21.7723 29.7601 21.9775 29.9659L25.9969 33.9994C26.4224 34.4262 26.4224 35.1167 25.9969 35.5435L25.3913 36.1513C25.6914 36.742 25.9447 37.3546 26.1488 37.9843L26.9999 37.9843C27.604 37.9843 28.0936 38.474 28.0936 39.078L28.0936 44.7823C28.0936 45.3864 27.6038 45.876 26.9999 45.876L26.1488 45.876C25.9446 46.5057 25.6914 47.1182 25.3913 47.709L25.9969 48.3168C26.4224 48.7436 26.4224 49.4341 25.9969 49.8609L21.9775 53.8944C21.7723 54.1004 21.4935 54.2161 21.2028 54.2161 20.9121 54.2161 20.6333 54.1004 20.4281 53.8944L19.826 53.2903C19.2391 53.5902 18.6304 53.8435 18.0049 54.0478L18.0049 54.9062C18.0049 55.5103 17.5152 56 16.9111 56ZM12.3207 53.8125 15.8175 53.8125 15.8175 53.2262C15.8175 52.7254 16.1577 52.2885 16.6434 52.1659 17.6321 51.9162 18.5781 51.5225 19.4554 50.996 19.8861 50.7374 20.4381 50.8056 20.793 51.1617L21.2029 51.573 23.6783 49.089 23.2631 48.6724C22.9101 48.3183 22.8422 47.77 23.0983 47.3405 23.6234 46.4593 24.0159 45.5092 24.2647 44.5165 24.3868 44.03 24.8241 43.6888 25.3257 43.6888L25.9062 43.6888 25.9062 40.172 25.3257 40.172C24.8241 40.172 24.3868 39.8308 24.2647 39.3443 24.0159 38.3516 23.6234 37.4014 23.0983 36.5203 22.8422 36.0909 22.91 35.5425 23.2631 35.1883L23.6783 34.7716 21.2029 32.2876 20.793 32.699C20.4381 33.0551 19.8863 33.1232 19.4554 32.8647 18.5781 32.3381 17.6319 31.9445 16.6434 31.6948 16.1577 31.5722 15.8175 31.1352 15.8175 30.6344L15.8175 30.0482 12.3207 30.0482 12.3207 30.6344C12.3207 31.1353 11.9804 31.5722 11.4948 31.6948 10.5062 31.9445 9.56014 32.3381 8.68273 32.8647 8.25158 33.1233 7.69989 33.055 7.34508 32.699L6.93514 32.2876 4.45977 34.7716 4.87495 35.1883C5.22802 35.5425 5.29583 36.0909 5.03978 36.5203 4.51467 37.4014 4.12213 38.3516 3.8733 39.3443 3.75123 39.8308 3.31395 40.172 2.81236 40.172L2.2318 40.172 2.2318 43.6888 2.81236 43.6888C3.31395 43.6888 3.75123 44.03 3.8733 44.5165 4.12213 45.5092 4.51467 46.4593 5.03978 47.3405 5.29583 47.77 5.22791 48.3183 4.87495 48.6724L4.45977 49.089 6.93514 51.573 7.34508 51.1617C7.7 50.8056 8.25191 50.7375 8.68273 50.996 9.55992 51.5226 10.506 51.9162 11.4948 52.1659 11.9803 52.2885 12.3207 52.7254 12.3207 53.2262ZM14.069 49.621C9.84091 49.621 6.40106 46.171 6.40106 41.9302 6.40106 37.6895 9.8408 34.2394 14.069 34.2394 18.2971 34.2394 21.7369 37.6895 21.7369 41.9302 21.7369 46.1709 18.2971 49.621 14.069 49.621ZM14.069 36.4268C11.0471 36.4268 8.58856 38.8956 8.58856 41.9301 8.58856 44.9646 11.0471 47.4334 14.069 47.4334 17.0909 47.4334 19.5494 44.9646 19.5494 41.9301 19.5494 38.8956 17.0909 36.4268 14.069 36.4268Z" transform="matrix(1.01786 0 0 1 489 408)"/></g></g></g><g clip-path="url(#clip25)"><g clip-path="url(#clip26)"><g clip-path="url(#clip27)"><path d="M692.641 463.219 662.359 463.219C658.918 463.215 656.129 460.426 656.125 456.984L656.125 416.016C656.129 412.574 658.918 409.785 662.359 409.781L692.641 409.781C696.082 409.785 698.871 412.574 698.875 416.016L698.875 456.984C698.871 460.426 696.082 463.215 692.641 463.219ZM662.359 411.562C659.901 411.565 657.909 413.557 657.906 416.016L657.906 456.984C657.909 459.443 659.901 461.435 662.359 461.438L692.641 461.438C695.099 461.435 697.091 459.443 697.094 456.984L697.094 416.016C697.091 413.557 695.099 411.565 692.641 411.562Z"/><path d="M680.172 459.656 674.828 459.656C673.352 459.656 672.156 458.46 672.156 456.984L672.156 453.422C672.156 451.946 673.352 450.75 674.828 450.75L680.172 450.75C681.648 450.75 682.844 451.946 682.844 453.422L682.844 456.984C682.844 458.46 681.648 459.656 680.172 459.656ZM674.828 452.531C674.336 452.531 673.938 452.93 673.938 453.422L673.938 456.984C673.938 457.476 674.336 457.875 674.828 457.875L680.172 457.875C680.664 457.875 681.062 457.476 681.062 456.984L681.062 453.422C681.062 452.93 680.664 452.531 680.172 452.531Z"/><path d="M667.703 459.656 662.359 459.656C660.884 459.656 659.688 458.46 659.688 456.984L659.688 453.422C659.688 451.946 660.884 450.75 662.359 450.75L667.703 450.75C669.179 450.75 670.375 451.946 670.375 453.422L670.375 456.984C670.375 458.46 669.179 459.656 667.703 459.656ZM662.359 452.531C661.867 452.531 661.469 452.93 661.469 453.422L661.469 456.984C661.469 457.476 661.867 457.875 662.359 457.875L667.703 457.875C668.195 457.875 668.594 457.476 668.594 456.984L668.594 453.422C668.594 452.93 668.195 452.531 667.703 452.531Z"/><path d="M692.641 459.656 687.297 459.656C685.821 459.656 684.625 458.46 684.625 456.984L684.625 442.734C684.625 441.259 685.821 440.062 687.297 440.062L692.641 440.062C694.116 440.062 695.312 441.259 695.312 442.734L695.312 456.984C695.312 458.46 694.116 459.656 692.641 459.656ZM687.297 441.844C686.805 441.844 686.406 442.242 686.406 442.734L686.406 456.984C686.406 457.476 686.805 457.875 687.297 457.875L692.641 457.875C693.133 457.875 693.531 457.476 693.531 456.984L693.531 442.734C693.531 442.242 693.133 441.844 692.641 441.844Z"/><path d="M680.172 448.969 674.828 448.969C673.352 448.969 672.156 447.773 672.156 446.297L672.156 442.734C672.156 441.259 673.352 440.062 674.828 440.062L680.172 440.062C681.648 440.062 682.844 441.259 682.844 442.734L682.844 446.297C682.844 447.773 681.648 448.969 680.172 448.969ZM674.828 441.844C674.336 441.844 673.938 442.242 673.938 442.734L673.938 446.297C673.938 446.789 674.336 447.188 674.828 447.188L680.172 447.188C680.664 447.188 681.062 446.789 681.062 446.297L681.062 442.734C681.062 442.242 680.664 441.844 680.172 441.844Z"/><path d="M667.703 448.969 662.359 448.969C660.884 448.969 659.688 447.773 659.688 446.297L659.688 442.734C659.688 441.259 660.884 440.062 662.359 440.062L667.703 440.062C669.179 440.062 670.375 441.259 670.375 442.734L670.375 446.297C670.375 447.773 669.179 448.969 667.703 448.969ZM662.359 441.844C661.867 441.844 661.469 442.242 661.469 442.734L661.469 446.297C661.469 446.789 661.867 447.188 662.359 447.188L667.703 447.188C668.195 447.188 668.594 446.789 668.594 446.297L668.594 442.734C668.594 442.242 668.195 441.844 667.703 441.844Z"/><path d="M680.172 438.281 674.828 438.281C673.352 438.281 672.156 437.085 672.156 435.609L672.156 432.047C672.156 430.571 673.352 429.375 674.828 429.375L680.172 429.375C681.648 429.375 682.844 430.571 682.844 432.047L682.844 435.609C682.844 437.085 681.648 438.281 680.172 438.281ZM674.828 431.156C674.336 431.156 673.938 431.555 673.938 432.047L673.938 435.609C673.938 436.101 674.336 436.5 674.828 436.5L680.172 436.5C680.664 436.5 681.062 436.101 681.062 435.609L681.062 432.047C681.062 431.555 680.664 431.156 680.172 431.156Z"/><path d="M667.703 438.281 662.359 438.281C660.884 438.281 659.688 437.085 659.688 435.609L659.688 432.047C659.688 430.571 660.884 429.375 662.359 429.375L667.703 429.375C669.179 429.375 670.375 430.571 670.375 432.047L670.375 435.609C670.375 437.085 669.179 438.281 667.703 438.281ZM662.359 431.156C661.867 431.156 661.469 431.555 661.469 432.047L661.469 435.609C661.469 436.101 661.867 436.5 662.359 436.5L667.703 436.5C668.195 436.5 668.594 436.101 668.594 435.609L668.594 432.047C668.594 431.555 668.195 431.156 667.703 431.156Z"/><path d="M692.641 438.281 687.297 438.281C685.821 438.281 684.625 437.085 684.625 435.609L684.625 432.047C684.625 430.571 685.821 429.375 687.297 429.375L692.641 429.375C694.116 429.375 695.312 430.571 695.312 432.047L695.312 435.609C695.312 437.085 694.116 438.281 692.641 438.281ZM687.297 431.156C686.805 431.156 686.406 431.555 686.406 432.047L686.406 435.609C686.406 436.101 686.805 436.5 687.297 436.5L692.641 436.5C693.133 436.5 693.531 436.101 693.531 435.609L693.531 432.047C693.531 431.555 693.133 431.156 692.641 431.156Z"/><path d="M692.641 425.812 662.359 425.812C660.884 425.812 659.688 424.616 659.688 423.141L659.688 416.016C659.688 414.54 660.884 413.344 662.359 413.344L692.641 413.344C694.116 413.344 695.312 414.54 695.312 416.016L695.312 423.141C695.312 424.616 694.116 425.812 692.641 425.812ZM662.359 415.125C661.867 415.125 661.469 415.524 661.469 416.016L661.469 423.141C661.469 423.633 661.867 424.031 662.359 424.031L692.641 424.031C693.133 424.031 693.531 423.633 693.531 423.141L693.531 416.016C693.531 415.524 693.133 415.125 692.641 415.125Z"/><path d="M689.969 423.141C688.493 423.141 687.297 421.944 687.297 420.469L687.297 418.688C687.297 417.212 688.493 416.016 689.969 416.016 691.444 416.016 692.641 417.212 692.641 418.688L692.641 420.469C692.641 421.944 691.444 423.141 689.969 423.141ZM689.969 417.797C689.477 417.797 689.078 418.196 689.078 418.688L689.078 420.469C689.078 420.961 689.477 421.359 689.969 421.359 690.461 421.359 690.859 420.961 690.859 420.469L690.859 418.688C690.859 418.196 690.461 417.797 689.969 417.797Z"/></g></g></g><text fill="#202021" font-family="Arial,Arial_MSFontService,sans-serif" font-weight="400" font-size="16" transform="translate(608.078 489)">Select cluster using <tspan font-size="16" x="8.08002" y="19">weighted random </tspan><tspan font-size="16" x="6.2467" y="38">probability of your </tspan><tspan font-size="16" x="13.2467" y="57">most listened to </tspan><tspan font-size="16" x="41.6667" y="76">clusters</tspan></text><g clip-path="url(#clip28)"><g clip-path="url(#clip29)"><g clip-path="url(#clip30)"><path d="M893.875 462.25 864.125 462.25C860.744 462.246 858.004 459.506 858 456.125L858 415.875C858.004 412.494 860.744 409.754 864.125 409.75L893.875 409.75C897.256 409.754 899.996 412.494 900 415.875L900 456.125C899.996 459.506 897.256 462.246 893.875 462.25ZM864.125 411.5C861.71 411.503 859.753 413.46 859.75 415.875L859.75 456.125C859.753 458.54 861.71 460.497 864.125 460.5L893.875 460.5C896.29 460.497 898.247 458.54 898.25 456.125L898.25 415.875C898.247 413.46 896.29 411.503 893.875 411.5Z"/><path d="M881.625 458.75 876.375 458.75C874.925 458.75 873.75 457.575 873.75 456.125L873.75 452.625C873.75 451.175 874.925 450 876.375 450L881.625 450C883.075 450 884.25 451.175 884.25 452.625L884.25 456.125C884.25 457.575 883.075 458.75 881.625 458.75ZM876.375 451.75C875.892 451.75 875.5 452.142 875.5 452.625L875.5 456.125C875.5 456.608 875.892 457 876.375 457L881.625 457C882.108 457 882.5 456.608 882.5 456.125L882.5 452.625C882.5 452.142 882.108 451.75 881.625 451.75Z"/><path d="M869.375 458.75 864.125 458.75C862.675 458.75 861.5 457.575 861.5 456.125L861.5 452.625C861.5 451.175 862.675 450 864.125 450L869.375 450C870.825 450 872 451.175 872 452.625L872 456.125C872 457.575 870.825 458.75 869.375 458.75ZM864.125 451.75C863.642 451.75 863.25 452.142 863.25 452.625L863.25 456.125C863.25 456.608 863.642 457 864.125 457L869.375 457C869.858 457 870.25 456.608 870.25 456.125L870.25 452.625C870.25 452.142 869.858 451.75 869.375 451.75Z"/><path d="M893.875 458.75 888.625 458.75C887.175 458.75 886 457.575 886 456.125L886 442.125C886 440.675 887.175 439.5 888.625 439.5L893.875 439.5C895.325 439.5 896.5 440.675 896.5 442.125L896.5 456.125C896.5 457.575 895.325 458.75 893.875 458.75ZM888.625 441.25C888.142 441.25 887.75 441.642 887.75 442.125L887.75 456.125C887.75 456.608 888.142 457 888.625 457L893.875 457C894.358 457 894.75 456.608 894.75 456.125L894.75 442.125C894.75 441.642 894.358 441.25 893.875 441.25Z"/><path d="M881.625 448.25 876.375 448.25C874.925 448.25 873.75 447.075 873.75 445.625L873.75 442.125C873.75 440.675 874.925 439.5 876.375 439.5L881.625 439.5C883.075 439.5 884.25 440.675 884.25 442.125L884.25 445.625C884.25 447.075 883.075 448.25 881.625 448.25ZM876.375 441.25C875.892 441.25 875.5 441.642 875.5 442.125L875.5 445.625C875.5 446.108 875.892 446.5 876.375 446.5L881.625 446.5C882.108 446.5 882.5 446.108 882.5 445.625L882.5 442.125C882.5 441.642 882.108 441.25 881.625 441.25Z"/><path d="M869.375 448.25 864.125 448.25C862.675 448.25 861.5 447.075 861.5 445.625L861.5 442.125C861.5 440.675 862.675 439.5 864.125 439.5L869.375 439.5C870.825 439.5 872 440.675 872 442.125L872 445.625C872 447.075 870.825 448.25 869.375 448.25ZM864.125 441.25C863.642 441.25 863.25 441.642 863.25 442.125L863.25 445.625C863.25 446.108 863.642 446.5 864.125 446.5L869.375 446.5C869.858 446.5 870.25 446.108 870.25 445.625L870.25 442.125C870.25 441.642 869.858 441.25 869.375 441.25Z"/><path d="M881.625 437.75 876.375 437.75C874.925 437.75 873.75 436.575 873.75 435.125L873.75 431.625C873.75 430.175 874.925 429 876.375 429L881.625 429C883.075 429 884.25 430.175 884.25 431.625L884.25 435.125C884.25 436.575 883.075 437.75 881.625 437.75ZM876.375 430.75C875.892 430.75 875.5 431.142 875.5 431.625L875.5 435.125C875.5 435.608 875.892 436 876.375 436L881.625 436C882.108 436 882.5 435.608 882.5 435.125L882.5 431.625C882.5 431.142 882.108 430.75 881.625 430.75Z"/><path d="M869.375 437.75 864.125 437.75C862.675 437.75 861.5 436.575 861.5 435.125L861.5 431.625C861.5 430.175 862.675 429 864.125 429L869.375 429C870.825 429 872 430.175 872 431.625L872 435.125C872 436.575 870.825 437.75 869.375 437.75ZM864.125 430.75C863.642 430.75 863.25 431.142 863.25 431.625L863.25 435.125C863.25 435.608 863.642 436 864.125 436L869.375 436C869.858 436 870.25 435.608 870.25 435.125L870.25 431.625C870.25 431.142 869.858 430.75 869.375 430.75Z"/><path d="M893.875 437.75 888.625 437.75C887.175 437.75 886 436.575 886 435.125L886 431.625C886 430.175 887.175 429 888.625 429L893.875 429C895.325 429 896.5 430.175 896.5 431.625L896.5 435.125C896.5 436.575 895.325 437.75 893.875 437.75ZM888.625 430.75C888.142 430.75 887.75 431.142 887.75 431.625L887.75 435.125C887.75 435.608 888.142 436 888.625 436L893.875 436C894.358 436 894.75 435.608 894.75 435.125L894.75 431.625C894.75 431.142 894.358 430.75 893.875 430.75Z"/><path d="M893.875 425.5 864.125 425.5C862.675 425.5 861.5 424.325 861.5 422.875L861.5 415.875C861.5 414.425 862.675 413.25 864.125 413.25L893.875 413.25C895.325 413.25 896.5 414.425 896.5 415.875L896.5 422.875C896.5 424.325 895.325 425.5 893.875 425.5ZM864.125 415C863.642 415 863.25 415.392 863.25 415.875L863.25 422.875C863.25 423.358 863.642 423.75 864.125 423.75L893.875 423.75C894.358 423.75 894.75 423.358 894.75 422.875L894.75 415.875C894.75 415.392 894.358 415 893.875 415Z"/><path d="M891.25 422.875C889.8 422.875 888.625 421.7 888.625 420.25L888.625 418.5C888.625 417.05 889.8 415.875 891.25 415.875 892.7 415.875 893.875 417.05 893.875 418.5L893.875 420.25C893.875 421.7 892.7 422.875 891.25 422.875ZM891.25 417.625C890.767 417.625 890.375 418.017 890.375 418.5L890.375 420.25C890.375 420.733 890.767 421.125 891.25 421.125 891.733 421.125 892.125 420.733 892.125 420.25L892.125 418.5C892.125 418.017 891.733 417.625 891.25 417.625Z"/></g></g></g><text fill="#202021" font-family="Arial,Arial_MSFontService,sans-serif" font-weight="400" font-size="16" transform="translate(792.774 489)">Select song from cluster <tspan font-size="16" x="3.33337" y="19">using weighted random </tspan><tspan font-size="16" x="11.7534" y="38">probability of popular </tspan><tspan font-size="16" x="16.0867" y="57">songs within cluster</tspan></text><path d="M554.5 440.167 638.181 440.167 638.181 440.833 554.5 440.833ZM636.848 436.5 644.848 440.5 636.848 444.5Z" fill="#414042"/><path d="M723.5 440.167 807.181 440.167 807.181 440.833 723.5 440.833ZM805.848 436.5 813.848 440.5 805.848 444.5Z" fill="#414042"/><g clip-path="url(#clip31)"><g clip-path="url(#clip32)"><g clip-path="url(#clip33)"><path d="M52.2657 0.933297 3.73428 0.933297C1.6753 0.933297 0 2.6087 0 4.66758L0 35.4666C0 35.9818 0.418141 36.3999 0.933297 36.3999L55.0666 36.3999C55.5817 36.3999 55.9999 35.9818 55.9999 35.4666L55.9999 4.66758C56 2.6087 54.3247 0.933297 52.2657 0.933297ZM54.1333 34.5333 1.8667 34.5333 1.8667 4.66758C1.8667 3.63716 2.70484 2.8 3.73428 2.8L52.2657 2.8C53.2952 2.8 54.1333 3.63716 54.1333 4.66758L54.1333 34.5333Z" transform="matrix(1.01786 0 0 1 1030 411)"/><path d="M55.0667 34.5333 0.933297 34.5333C0.418141 34.5333 0 34.9514 0 35.4666L0 40.1323C0 42.1913 1.6753 43.8666 3.73428 43.8666L52.2657 43.8666C54.3247 43.8666 56 42.1913 56 40.1323L56 35.4666C56 34.9514 55.5819 34.5333 55.0667 34.5333ZM54.1333 40.1324C54.1333 41.1628 53.2952 42 52.2657 42L3.73428 42C2.70484 42 1.8667 41.1628 1.8667 40.1324L1.8667 36.4 54.1334 36.4 54.1334 40.1324Z" transform="matrix(1.01786 0 0 1 1030 411)"/><path d="M30.8 38.2667 25.2 38.2667C24.6848 38.2667 24.2667 38.6848 24.2667 39.2 24.2667 39.7152 24.6848 40.1333 25.2 40.1333L30.8 40.1333C31.3152 40.1333 31.7333 39.7152 31.7333 39.2 31.7333 38.6848 31.3152 38.2667 30.8 38.2667Z" transform="matrix(1.01786 0 0 1 1030 411)"/><path d="M51.3333 4.6667 4.6667 4.6667C4.15155 4.6667 3.73341 5.08484 3.73341 5.6L3.73341 35.4667C3.73341 35.9819 4.15155 36.4 4.6667 36.4L51.3334 36.4C51.8486 36.4 52.2667 35.9819 52.2667 35.4667L52.2667 5.6C52.2667 5.08484 51.8486 4.6667 51.3333 4.6667ZM50.4 34.5333 5.6 34.5333 5.6 6.5333 50.4 6.5333 50.4 34.5333Z" transform="matrix(1.01786 0 0 1 1030 411)"/><path d="M40.1333 49.4667 15.8667 49.4667C14.323 49.4667 13.0667 50.723 13.0667 52.2667 13.0667 53.8104 14.323 55.0667 15.8667 55.0667L40.1334 55.0667C41.6771 55.0667 42.9334 53.8104 42.9334 52.2667 42.9334 50.723 41.677 49.4667 40.1333 49.4667ZM40.1333 53.2 15.8667 53.2C15.3515 53.2 14.9334 52.781 14.9334 52.2667 14.9334 51.7524 15.3515 51.3334 15.8667 51.3334L40.1334 51.3334C40.6486 51.3334 41.0667 51.7524 41.0667 52.2667 41.0667 52.781 40.6486 53.2 40.1333 53.2Z" transform="matrix(1.01786 0 0 1 1030 411)"/><path d="M38.2667 49.4667C35.1699 49.4667 33.6 47.2687 33.6 42.9334 33.6 42.4183 33.1819 42.0001 32.6667 42.0001L23.3334 42.0001C22.8182 42.0001 22.4001 42.4183 22.4001 42.9334 22.4001 47.2687 20.8302 49.4667 17.7334 49.4667 17.2183 49.4667 16.8001 49.8848 16.8001 50.4 16.8001 50.9152 17.2183 51.3333 17.7334 51.3333L38.2667 51.3333C38.7819 51.3333 39.2 50.9152 39.2 50.4 39.2 49.8848 38.7819 49.4667 38.2667 49.4667ZM22.2796 49.4667C23.4286 48.1937 24.1052 46.298 24.2414 43.8667L31.7594 43.8667C31.8947 46.298 32.5714 48.1937 33.7213 49.4667L22.2796 49.4667Z" transform="matrix(1.01786 0 0 1 1030 411)"/><path d="M44.5984 28.433 42.3454 26.18 43.5988 24.9266C43.8313 24.6941 43.9246 24.3563 43.8443 24.038 43.764 23.7197 43.5223 23.4677 43.2077 23.3726L33.8744 20.5726C33.545 20.4736 33.1894 20.5641 32.9467 20.8068 32.7031 21.0495 32.6135 21.406 32.7124 21.7346L35.5124 31.0679C35.6067 31.3833 35.8596 31.625 36.1779 31.7053 36.4952 31.7837 36.834 31.6922 37.0664 31.4599L38.3861 30.1392 40.6392 32.3932C40.8137 32.5686 41.0517 32.6666 41.299 32.6666 41.5463 32.6666 41.7843 32.5686 41.9589 32.3932L44.5983 29.7527C44.9633 29.3879 44.9633 28.798 44.5984 28.433ZM41.299 30.4136 39.2476 28.3612C39.0096 28.1232 38.6979 28.0046 38.3861 28.0046 38.0734 28.0046 37.7617 28.124 37.5247 28.3602L36.8508 29.034 34.9981 22.8582 41.174 24.7109 40.4516 25.4333C40.2527 25.633 40.1436 25.8981 40.1436 26.18 40.1436 26.4628 40.2537 26.7297 40.4534 26.9276L42.6187 29.0929 41.299 30.4136Z" transform="matrix(1.01786 0 0 1 1030 411)"/><path d="M39.2 8.4 13.0667 8.4C12.5515 8.4 12.1334 8.81814 12.1334 9.3333L12.1334 14C12.1334 14.5152 12.5515 14.9333 13.0667 14.9333L39.2 14.9333C39.7152 14.9333 40.1333 14.5152 40.1333 14L40.1333 9.3333C40.1333 8.81814 39.7152 8.4 39.2 8.4ZM38.2667 13.0667 14 13.0667 14 10.2667 38.2667 10.2667 38.2667 13.0667Z" transform="matrix(1.01786 0 0 1 1030 411)"/><path d="M24.2667 18.6667 16.8 18.6667C16.2848 18.6667 15.8667 19.0848 15.8667 19.6L15.8667 23.3333C15.8667 23.8485 16.2848 24.2666 16.8 24.2666L24.2667 24.2666C24.7819 24.2666 25.2 23.8485 25.2 23.3333L25.2 19.6C25.2 19.0848 24.7819 18.6667 24.2667 18.6667ZM23.3333 22.4 17.7333 22.4 17.7333 20.5333 23.3333 20.5333 23.3333 22.4Z" transform="matrix(1.01786 0 0 1 1030 411)"/><path d="M39.2 8.4 13.0667 8.4C12.5515 8.4 12.1334 8.81814 12.1334 9.3333L12.1334 27.0666C12.1334 27.5817 12.5515 27.9999 13.0667 27.9999L35.2857 27.9999C35.5815 27.9999 35.8587 27.8609 36.0342 27.6237 36.2107 27.3867 36.2648 27.0806 36.1798 26.7977L34.9983 22.8582 38.9323 24.0389C39.2151 24.1239 39.5212 24.0697 39.7573 23.8933 39.9943 23.7179 40.1334 23.4397 40.1334 23.1447L40.1334 9.3333C40.1333 8.81814 39.7152 8.4 39.2 8.4ZM38.2667 21.8904 33.8734 20.5726C33.544 20.4736 33.1884 20.5641 32.9457 20.8068 32.7021 21.0504 32.6126 21.406 32.7114 21.7355L34.0312 26.1334 14 26.1334 14 10.2667 38.2667 10.2667 38.2667 21.8904Z" transform="matrix(1.01786 0 0 1 1030 411)"/></g></g></g><path d="M916.5 439.167 1000.18 439.167 1000.18 439.833 916.5 439.833ZM998.848 435.5 1006.85 439.5 998.848 443.5Z" fill="#414042"/><text fill="#202021" font-family="Arial,Arial_MSFontService,sans-serif" font-weight="400" font-size="16" transform="translate(991.153 492)">Song rendered on <tspan font-size="16" x="46.0801" y="19">page</tspan></text><path d="M481.223 243.5 481.223 325.37 358.5 325.37 358.833 325.037 358.833 399.906 358.167 399.906 358.167 324.703 480.89 324.703 480.557 325.037 480.557 243.5ZM362.5 398.573 358.5 406.573 354.5 398.573Z" fill="#414042"/><path d="M0-0.333333 82.5868-0.333333 82.5868 78.7419 82.2534 78.4086 157.84 78.4086 157.84 79.0753 81.9201 79.0753 81.9201 0 82.2534 0.333333 0 0.333333ZM156.507 74.7419 164.507 78.7419 156.507 82.7419Z" fill="#414042" transform="matrix(1.83697e-16 1 1 -1.83697e-16 800.5 243.5)"/><text fill="#202021" font-family="Arial,Arial_MSFontService,sans-serif" font-weight="400" font-size="24" transform="translate(123.29 80)">Model training</text></g></svg>